<svg viewBox="0 0 512 512" xmlns="http://www.w3.org/2000/svg" xmlns:xlink="http://www.w3.org/1999/xlink"><linearGradient id="a" gradientUnits="userSpaceOnUse" x1="-602.2" x2="-602.2" y1="395.5" y2="91.4"><stop offset="0"/><stop offset="1" stop-opacity=".7"/></linearGradient><path d="m-359 677.1h1029.3v666.7h-1029.3z"/><path d="m1517.1-111.3c-14.1-44.9-62-69.9-107-55.7-44.9 14.1-69.9 62-55.7 107 0 .2.1.4.2.6h-40.5c-7.7 0-14.5-5-16.8-12.4l-33.5-110 5.7-3c79.4-33.3 164.4 26.2 223.6-31l.4-.4c7.3-6.7 14.6-13.4 36.3 0 23.3 14.6 74.7 52.7 98 117.8 0 0 14.1-5 10.2-22.3s-32.6-67.2-91.1-111.4c-10.7-8.1-20.4-14.9-28.4-20.3 11.7-50.1-49.1-110.5-108.4-82-42.6-40-90.1-56.4-133.7-55.7-115.7 1.6-204.9 122.2-108.9 237.2l.2.2c1.5 1.8 3 3.5 4.5 5.3 6.2 7.5 10.3 14.1 13.9 25.7l28.6 93.8h-10.1c-9.3 0-16.9 7.6-16.9 16.9h38.4l64.6 30.5c4-8.5.4-18.5-8-22.5l-16.9-8h48.7c0-9.3-7.6-16.9-16.9-16.9h-44.1c-7.7 0-14.5-5-16.8-12.4l-22.7-74.5c-5.6-19.6 7.3-32.4 19.5-33.9 11.1-1.4 16.7 5.8 22 23.2l20.1 66.1h-10.1c-9.3 0-16.9 7.6-16.9 16.9h38.4l64.6 30.5c4-8.5.4-18.5-8-22.5l-16.9-8h35.7c19.6 33.6 60.5 50.4 99.2 38.2 44.9-14.1 69.9-62 55.7-107zm-65-191.8c14.2 0 25.6 11.5 25.6 25.6s-1.2 8.8-3.2 12.5c-.2-8.9-7.4-16-16.4-16s-16.4 7.3-16.4 16.4 2.2 9.3 5.6 12.3c-11.9-2.3-20.8-12.7-20.8-25.2s11.5-25.6 25.6-25.6z"/><rect fill="#fff" height="512" rx="100" width="512" y=".3"/><path d="m462 299.3c-2.9-12.9-24.2-50.1-67.6-83.1-7.9-6.1-15.1-11.1-21.1-15.1 8.7-37.3-36.5-82.3-80.5-61.1-31.6-29.9-66.9-42.1-99.3-41.6-85.9 1.2-152.2 91.1-80.9 176.8l.1.1c1.1 1.3 2.2 2.6 3.4 3.9 4.6 5.6 7.7 10.5 10.3 19.2l21.3 69.9h-7.5c-6.9 0-12.6 5.6-12.6 12.6h28.5l47.9 22.8c3-6.3.3-13.8-6-16.8l-12.6-6h36.2c0-6.9-5.6-12.6-12.6-12.6h-32.8c-5.7 0-10.8-3.8-12.5-9.3l-16.8-55.5c-4.2-14.6 5.4-24.1 14.5-25.3 8.3-1 12.4 4.3 16.3 17.3l15 49.3h-7.5c-6.9 0-12.6 5.6-12.6 12.6h28.5l47.9 22.8c3-6.3.3-13.8-6-16.8l-12.6-6h26.5c2.7 4.6 6 8.9 9.9 12.8 24.7 24.8 64.9 24.8 89.6 0s24.7-65.1 0-89.9-64.9-24.8-89.6 0c-17.4 17.4-22.6 42.5-15.5 64.5h-30c-5.7 0-10.8-3.8-12.5-9.3l-24.9-82 4.2-2.3c59-24.8 122.1 19.5 166-23.1l.3-.3c5.4-5 10.9-10 26.9 0 17.3 10.9 55.5 39.3 72.8 87.8 0 0 10.5-3.8 7.6-16.6zm-121.3-107.6c-.1-6.6-5.5-11.9-12.2-11.9s-12.2 5.5-12.2 12.2 1.6 6.9 4.2 9.2c-8.8-1.7-15.5-9.4-15.5-18.8s8.5-19.1 19-19.1 19 8.5 19 19.1c0 3.4-.9 6.5-2.4 9.3z" fill="#161616"/><path d="m-412.6 291.5c-2.9-12.9-24.2-49.9-67.6-82.8-7.9-6-15.1-11.1-21.1-15 8.7-37.2-36.5-82-80.5-60.9-31.6-29.8-66.9-41.9-99.3-41.4-85.9 1.2-152.2 90.7-80.9 176.1l.1.1c1.1 1.3 2.2 2.6 3.4 3.9 4.6 5.5 7.7 10.5 10.3 19.1l21.3 69.7h-7.5c-6.9 0-12.6 5.6-12.6 12.6h28.5l47.9 22.7c3-6.3.3-13.8-6-16.7l-12.6-5.9h36.2c0-6.9-5.6-12.6-12.6-12.6h-32.8c-5.7 0-10.8-3.7-12.5-9.2l-16.8-55.3c-4.2-14.5 5.4-24 14.5-25.2 8.3-1 12.4 4.3 16.3 17.2l15 49.1h-7.5c-6.9 0-12.6 5.6-12.6 12.6h28.5l47.9 22.7c3-6.3.3-13.8-6-16.7l-12.6-5.9h26.5c2.7 4.6 6 8.9 9.9 12.7 24.7 24.7 64.9 24.7 89.6 0s24.7-64.9 0-89.6-64.9-24.7-89.6 0c-17.4 17.4-22.6 42.4-15.5 64.3h-30c-5.7 0-10.8-3.7-12.5-9.2l-24.9-81.7 4.2-2.3c59-24.7 122.1 19.5 166-23l.3-.3c5.4-4.9 10.9-10 26.9 0 17.3 10.8 55.5 39.1 72.8 87.5 0 0 10.5-3.7 7.6-16.6zm-121.4-107.2c-.1-6.6-5.5-11.9-12.2-11.9s-12.2 5.4-12.2 12.2 1.6 6.9 4.2 9.1c-8.8-1.7-15.5-9.4-15.5-18.7s8.5-19 19-19 19 8.5 19 19c0 3.4-.9 6.5-2.4 9.2z" fill="url(#a)"/></svg>
